<svg width="22" height="22" viewBox="0 0 22 22" fill="none" xmlns="http://www.w3.org/2000/svg">
<g clip-path="url(#clip0_13714_5588)">
<path fill-rule="evenodd" clip-rule="evenodd" d="M6.85297 2.22731C9.56785 1.74496 12.3461 1.74 15.0626 2.21264C16.0121 2.37625 16.888 2.82872 17.5709 3.50836C18.2539 4.18799 18.7105 5.06171 18.8787 6.01039C19.2738 8.17373 19.3627 10.3022 18.9154 12.5251C18.6532 13.8341 17.0628 15.0661 15.2249 15.3971C13.8041 15.6519 9.28122 15.7839 7.79072 15.5831C8.19222 17.4165 12.0386 17.0984 12.8324 16.9581L13.0478 16.9187C13.5721 16.8225 14.377 16.674 14.7684 16.7528C15.3276 16.8656 15.8244 17.2597 15.8226 17.8776C15.8216 18.4037 15.4431 18.7951 15.0232 19.0564C14.7024 19.2562 14.2826 19.4386 13.8096 19.5926C12.8544 19.9043 11.5546 20.1426 10.0879 20.15C6.94556 20.1637 3.99756 18.0756 3.23306 14.8791C2.54647 12.0072 2.55197 8.78514 3.10014 5.91231C3.27545 4.98876 3.72886 4.14086 4.3996 3.48224C5.07035 2.82361 5.92638 2.38575 6.85297 2.22731ZM12.8333 7.33314C12.5902 7.33314 12.357 7.42972 12.1851 7.60163C12.0132 7.77354 11.9166 8.0067 11.9166 8.24981V10.9998C11.9166 11.2429 11.8201 11.4761 11.6482 11.648C11.4762 11.8199 11.2431 11.9165 11 11.9165C10.7569 11.9165 10.5237 11.8199 10.3518 11.648C10.1799 11.4761 10.0833 11.2429 10.0833 10.9998V8.24981C10.0833 8.0067 9.98673 7.77354 9.81482 7.60163C9.64291 7.42972 9.40975 7.33314 9.16664 7.33314C8.92352 7.33314 8.69037 7.42972 8.51846 7.60163C8.34655 7.77354 8.24997 8.0067 8.24997 8.24981V11.9165C8.24997 12.1596 8.1534 12.3927 7.98149 12.5647C7.80958 12.7366 7.57642 12.8331 7.33331 12.8331C7.09019 12.8331 6.85703 12.7366 6.68513 12.5647C6.51322 12.3927 6.41664 12.1596 6.41664 11.9165V8.24981C6.41665 7.71895 6.57032 7.19944 6.85908 6.75399C7.14785 6.30853 7.55937 5.95618 8.04398 5.73946C8.52859 5.52275 9.06557 5.45093 9.5901 5.53267C10.1146 5.61442 10.6043 5.84624 11 6.20014C11.3957 5.84624 11.8853 5.61442 12.4098 5.53267C12.9344 5.45093 13.4713 5.52275 13.956 5.73946C14.4406 5.95618 14.8521 6.30853 15.1409 6.75399C15.4296 7.19944 15.5833 7.71895 15.5833 8.24981V11.9165C15.5833 12.1596 15.4867 12.3927 15.3148 12.5647C15.1429 12.7366 14.9098 12.8331 14.6666 12.8331C14.4235 12.8331 14.1904 12.7366 14.0185 12.5647C13.8465 12.3927 13.75 12.1596 13.75 11.9165V8.24981C13.75 8.0067 13.6534 7.77354 13.4815 7.60163C13.3096 7.42972 13.0764 7.33314 12.8333 7.33314Z" fill="#FC9300"/>
</g>
<defs>
<clipPath id="clip0_13714_5588">
<rect width="22" height="22" fill="white"/>
</clipPath>
</defs>
</svg>
