<svg width="19" height="19" viewBox="0 0 19 19" fill="none" xmlns="http://www.w3.org/2000/svg">
<path d="M6.688 18.563C7.6 18.8385 8.5215 19 9.5 19C12.0196 19 14.4359 17.9991 16.2175 16.2175C17.9991 14.4359 19 12.0196 19 9.5C19 8.25244 18.7543 7.0171 18.2769 5.86451C17.7994 4.71191 17.0997 3.66464 16.2175 2.78249C15.3354 1.90033 14.2881 1.20056 13.1355 0.723144C11.9829 0.245725 10.7476 0 9.5 0C8.25244 0 7.0171 0.245725 5.86451 0.723144C4.71191 1.20056 3.66464 1.90033 2.78249 2.78249C1.00089 4.56408 0 6.98044 0 9.5C0 13.5375 2.5365 17.005 6.118 18.373C6.0325 17.632 5.947 16.4065 6.118 15.561L7.2105 10.868C7.2105 10.868 6.935 10.317 6.935 9.443C6.935 8.132 7.752 7.1535 8.683 7.1535C9.5 7.1535 9.88 7.752 9.88 8.5215C9.88 9.3385 9.3385 10.507 9.063 11.628C8.9015 12.559 9.557 13.376 10.507 13.376C12.198 13.376 13.509 11.571 13.509 9.025C13.509 6.745 11.875 5.187 9.5285 5.187C6.8495 5.187 5.2725 7.182 5.2725 9.2815C5.2725 10.0985 5.5385 10.925 5.9755 11.4665C6.061 11.5235 6.061 11.5995 6.0325 11.742L5.757 12.7775C5.757 12.939 5.6525 12.996 5.491 12.882C4.275 12.35 3.572 10.621 3.572 9.2245C3.572 6.2225 5.7 3.496 9.804 3.496C13.072 3.496 15.618 5.8425 15.618 8.9585C15.618 12.2265 13.5945 14.8485 10.697 14.8485C9.7755 14.8485 8.873 14.3545 8.55 13.775L7.9135 16.0265C7.695 16.8435 7.0965 17.936 6.688 18.5915V18.563Z" fill="#FC9300"/>
</svg>
