<svg width="20" height="15" viewBox="0 0 20 15" fill="none" xmlns="http://www.w3.org/2000/svg">
<g id="Email">
<path id="Vector" d="M18.3333 2.94971V11.283C18.3333 11.8356 18.1138 12.3655 17.7231 12.7562C17.3324 13.1469 16.8025 13.3664 16.25 13.3664H3.75001C3.19747 13.3664 2.66757 13.1469 2.27687 12.7562C1.88616 12.3655 1.66667 11.8356 1.66667 11.283V2.94971" stroke="#FC9300" stroke-width="1.4" stroke-linecap="round" stroke-linejoin="round"/>
<path id="Vector_2" d="M18.3333 2.94954C18.3333 2.39701 18.1138 1.86711 17.7231 1.47641C17.3324 1.0857 16.8025 0.866211 16.25 0.866211H3.75001C3.19747 0.866211 2.66757 1.0857 2.27687 1.47641C1.88616 1.86711 1.66667 2.39701 1.66667 2.94954L8.89584 7.46343C9.22695 7.67038 9.60955 7.7801 10 7.7801C10.3905 7.7801 10.7731 7.67038 11.1042 7.46343L18.3333 2.94954Z" stroke="#FC9300" stroke-width="1.4" stroke-linecap="round" stroke-linejoin="round"/>
</g>
</svg>
