<svg width="20" height="19" viewBox="0 0 20 19" fill="none" xmlns="http://www.w3.org/2000/svg">
<g id="Phone">
<path id="Vector" d="M12.2516 17.3851L12.2607 17.3915C13.0477 17.8926 13.9822 18.1102 14.9097 18.0084C15.8371 17.9065 16.7021 17.4913 17.3616 16.8313L17.9346 16.2584C18.0615 16.1315 18.1623 15.9808 18.231 15.815C18.2997 15.6492 18.3351 15.4714 18.3351 15.2919C18.3351 15.1124 18.2997 14.9347 18.231 14.7688C18.1623 14.603 18.0615 14.4524 17.9346 14.3255L15.518 11.9107C15.3911 11.7838 15.2405 11.683 15.0746 11.6143C14.9088 11.5456 14.7311 11.5102 14.5516 11.5102C14.3721 11.5102 14.1943 11.5456 14.0285 11.6143C13.8627 11.683 13.712 11.7838 13.5851 11.9107C13.3289 12.1669 12.9814 12.3108 12.6191 12.3108C12.2568 12.3108 11.9094 12.1669 11.6531 11.9107L7.78918 8.04586C7.53304 7.78963 7.38914 7.44217 7.38914 7.07987C7.38914 6.71757 7.53304 6.3701 7.78918 6.11388C7.91615 5.987 8.01687 5.83633 8.08559 5.67051C8.15431 5.50468 8.18968 5.32694 8.18968 5.14744C8.18968 4.96794 8.15431 4.79019 8.08559 4.62437C8.01687 4.45854 7.91615 4.30788 7.78918 4.18099L5.37353 1.76625C5.1173 1.51011 4.76984 1.36621 4.40754 1.36621C4.04524 1.36621 3.69777 1.51011 3.44155 1.76625L2.8677 2.33919C2.20785 2.99883 1.79279 3.86385 1.6911 4.79131C1.58941 5.71878 1.80717 6.65318 2.30842 7.44012L2.31388 7.44923C4.96106 11.3658 8.33451 14.7386 12.2516 17.3851V17.3851Z" stroke="#FC9300" stroke-width="1.4" stroke-linecap="round" stroke-linejoin="round"/>
</g>
</svg>
