<svg width="361" height="65" viewBox="0 0 361 65" fill="none" xmlns="http://www.w3.org/2000/svg">
<g clip-path="url(#clip0_12301_13112)">
<path d="M37.2813 32.214C37.2813 44.7071 27.7671 50.7726 19.9745 50.7726C13.8129 50.7726 8.73864 47.0609 7.8325 43.5302V50.1389H0.402344V1.52441H7.8325V20.6262C8.73864 17.6387 13.8129 13.746 19.9745 13.746C27.6765 13.746 37.2813 19.902 37.2813 32.214ZM30.0324 32.214C30.0324 24.3379 24.4144 20.3546 18.7965 20.3546C13.2692 20.3546 7.47007 24.2474 7.47007 32.214C7.47007 40.2711 13.2692 44.1639 18.7965 44.1639C24.4144 44.1639 30.0324 40.1806 30.0324 32.214Z" fill="#333333"/>
<path d="M50.5102 1.16211H43.0801V8.58557H50.5102V1.16211Z" fill="#F89C44"/>
<path d="M50.5102 14.2891H43.0801V50.0483H50.5102V14.2891Z" fill="#333333"/>
<path d="M68.4488 20.5353V40.5423C68.4488 42.4434 69.1735 43.9824 71.3484 43.9824C73.1605 43.9824 74.5196 43.6203 76.0601 42.9866V49.2332C74.5196 49.9574 72.5261 50.5006 69.4459 50.5006C65.0057 50.5006 61.0188 48.69 61.0188 40.8139V20.5353H56.0352V14.3793H61.0188V5.95996H68.4488V14.3793H75.9697V20.5353H68.4488Z" fill="#333333"/>
<path d="M93.5497 19.7205C90.8308 19.7205 88.6566 21.2595 88.6566 23.7038C88.6566 25.6049 89.9247 27.1439 92.8243 28.1397L96.7209 29.4977C102.339 31.4893 106.96 33.7526 106.96 39.9991C106.96 47.151 100.527 50.7721 93.64 50.7721C86.6632 50.7721 81.4978 47.151 80.1387 40.9949L86.0288 39.1843C87.0252 42.4434 89.8344 44.7067 93.5497 44.7067C96.8113 44.7067 99.7108 42.896 99.7108 39.9991C99.7108 37.8264 98.08 36.3779 94.9991 35.2915L90.9218 33.8431C84.307 31.4893 81.4074 27.9587 81.4074 23.4322C81.4074 17.3667 86.7535 13.5645 93.187 13.5645C99.3488 13.5645 103.607 16.9141 105.601 21.9837L99.4391 23.7038C98.1704 21.1689 96.1769 19.7205 93.5497 19.7205Z" fill="#333333"/>
<path d="M160.421 32.3037C160.421 44.7063 150.001 50.7717 141.936 50.7717C133.872 50.7717 123.451 44.7063 123.451 32.3037C123.451 19.9011 133.872 13.7451 141.936 13.7451C150.001 13.7451 160.421 19.9011 160.421 32.3037ZM130.61 32.3037C130.61 40.1798 136.681 44.1631 141.846 44.1631C147.01 44.1631 153.082 40.1798 153.082 32.3037C153.082 24.3371 147.01 20.3537 141.846 20.3537C136.681 20.3537 130.61 24.3371 130.61 32.3037Z" fill="#333333"/>
<path d="M175.552 12.2971V14.3793H184.795V20.5353H175.552V50.0479H168.122V20.5353H163.863V14.3793H168.122V12.2971C168.122 2.33881 175.099 0.799805 179.539 0.799805C182.71 0.799805 185.701 1.61457 187.875 2.97252L185.248 8.13268C183.526 7.40847 182.257 6.95583 180.264 6.95583C176.821 6.95583 175.552 9.21909 175.552 12.2971Z" fill="#333333"/>
<path d="M235.813 14.289V50.0482C235.813 60.8212 225.845 64.1708 218.506 64.1708C213.613 64.1708 210.079 62.9939 208.267 61.7265V55.5705C210.079 56.8379 213.522 57.9243 218.506 57.9243C224.758 57.9243 228.383 54.5747 228.383 50.0482V43.4395C227.477 46.9702 222.402 50.6819 216.241 50.6819C208.448 50.6819 198.934 44.6164 198.934 32.1233C198.934 19.8113 208.448 13.6553 216.241 13.6553C222.402 13.6553 227.477 17.4575 228.383 20.5355V14.289H235.813ZM228.745 32.2138C228.745 24.2472 222.946 20.3544 217.418 20.3544C211.892 20.3544 206.183 24.3378 206.183 32.2138C206.183 40.1805 211.801 44.1637 217.418 44.1637C223.037 44.1637 228.745 40.271 228.745 32.2138Z" fill="#333333"/>
<path d="M278.671 32.3037C278.671 44.7063 268.25 50.7717 260.186 50.7717C252.122 50.7717 241.701 44.7063 241.701 32.3037C241.701 19.9011 252.122 13.7451 260.186 13.7451C268.25 13.7451 278.671 19.9011 278.671 32.3037ZM248.859 32.3037C248.859 40.1798 254.93 44.1631 260.095 44.1631C265.26 44.1631 271.331 40.1798 271.331 32.3037C271.331 24.3371 265.26 20.3537 260.095 20.3537C254.93 20.3537 248.859 24.3371 248.859 32.3037Z" fill="#333333"/>
<path d="M319.446 32.3037C319.446 44.7063 309.026 50.7717 300.961 50.7717C292.897 50.7717 282.477 44.7063 282.477 32.3037C282.477 19.9011 292.897 13.7451 300.961 13.7451C309.026 13.7451 319.446 19.9011 319.446 32.3037ZM289.635 32.3037C289.635 40.1798 295.706 44.1631 300.87 44.1631C306.036 44.1631 312.106 40.1798 312.106 32.3037C312.106 24.3371 306.036 20.3537 300.87 20.3537C295.706 20.3537 289.635 24.3371 289.635 32.3037Z" fill="#333333"/>
<path d="M360.403 1.52441V50.1389H352.973V43.5302C352.067 47.0609 346.992 50.7726 340.83 50.7726C333.038 50.7726 323.523 44.7071 323.523 32.214C323.523 19.902 333.038 13.746 340.83 13.746C346.992 13.746 352.067 17.5482 352.973 20.6262V1.52441H360.403ZM353.335 32.214C353.335 24.2474 347.536 20.3546 342.008 20.3546C336.481 20.3546 330.773 24.3379 330.773 32.214C330.773 40.1806 336.39 44.1639 342.008 44.1639C347.536 44.1639 353.335 40.2711 353.335 32.214Z" fill="#333333"/>
</g>
<defs>
<clipPath id="clip0_12301_13112">
<rect width="360" height="63.3708" fill="white" transform="translate(0.402344 0.799805)"/>
</clipPath>
</defs>
</svg>
