<svg width="100" height="127" viewBox="0 0 100 127" fill="none" xmlns="http://www.w3.org/2000/svg">
<path d="M85.3197 126.399L61.74 116.869C74.6954 84.9403 75.0986 70.5939 74.3625 57.5475C74.2533 55.5454 73.9697 53.5565 73.515 51.6035C70.3972 35.7555 60.9128 27.7455 48.0586 26.1971C38.7052 25.0595 31.3196 27.154 25.4473 30.539V13.1672C32.6601 9.15776 40.8439 7.01465 49.3802 7.01465C62.3957 7.01465 74.5941 11.7098 83.7254 20.2329C93.3915 29.2503 98.9309 41.6622 99.7581 56.1097C100.826 74.9066 98.7796 93.2226 85.3197 126.399Z" fill="url(#paint0_linear_12301_13129)"/>
<path d="M72.5045 83.6136C71.3019 89.306 69.4778 95.8744 66.7334 103.711C61.3285 105.652 55.6272 106.64 49.8836 106.633C22.3791 106.633 0 84.2867 0 56.8225V0H25.4437V56.8326C25.4433 58.9341 25.7145 61.0269 26.2507 63.0591H26.2406C29.4495 76.4082 39.1055 85.9192 50.9881 87.3595C59.7813 88.4276 66.8138 86.6472 72.5045 83.6136Z" fill="url(#paint1_linear_12301_13129)"/>
<path d="M72.503 83.6319C66.8123 86.6655 59.7811 88.4477 50.9916 87.3796C39.1059 85.9393 29.4499 76.4283 26.2441 63.0792C29.0088 73.5268 38.5635 81.2543 49.8846 81.2543C63.2939 81.2543 74.2106 70.4237 74.3214 57.0645C74.3416 57.2155 74.3518 57.3767 74.3619 57.5277C74.7834 64.852 74.8334 72.5895 72.503 83.6319Z" fill="url(#paint2_linear_12301_13129)"/>
<path d="M73.5092 51.6009C72.2883 46.4324 69.8667 42.0703 66.3571 38.7858C61.9475 34.6778 55.9245 32.4184 49.3763 32.4184C35.9582 32.4184 25.4434 43.1378 25.4434 56.8294V30.5344C31.315 27.1488 38.7013 25.0537 48.0541 26.1919C60.907 27.7454 70.3914 35.7528 73.5092 51.6009Z" fill="url(#paint3_linear_12301_13129)"/>
<defs>
<linearGradient id="paint0_linear_12301_13129" x1="37.89" y1="6.50778" x2="92.2049" y2="100.251" gradientUnits="userSpaceOnUse">
<stop stop-color="#EF5266"/>
<stop offset="1" stop-color="#FFD528"/>
</linearGradient>
<linearGradient id="paint1_linear_12301_13129" x1="54.7261" y1="110.275" x2="-4.27683" y2="2.33814" gradientUnits="userSpaceOnUse">
<stop stop-color="#333333"/>
<stop offset="0.8" stop-color="#727474"/>
</linearGradient>
<linearGradient id="paint2_linear_12301_13129" x1="74.6992" y1="75.692" x2="26.4453" y2="62.3426" gradientUnits="userSpaceOnUse">
<stop stop-color="#727474"/>
<stop offset="1" stop-color="#333333"/>
</linearGradient>
<linearGradient id="paint3_linear_12301_13129" x1="25.4421" y1="41.3549" x2="73.5092" y2="41.3549" gradientUnits="userSpaceOnUse">
<stop stop-color="#CE1E4D"/>
<stop offset="1" stop-color="#F69055"/>
</linearGradient>
</defs>
</svg>
