<svg width="116" height="116" viewBox="0 0 116 116" fill="none" xmlns="http://www.w3.org/2000/svg">
<g clip-path="url(#clip0_12370_15973)">
<path fill-rule="evenodd" clip-rule="evenodd" d="M57.75 115.5C89.5065 115.5 115.25 89.7565 115.25 58C115.25 26.2436 89.5065 0.5 57.75 0.5C25.9936 0.5 0.25 26.2436 0.25 58C0.25 89.7565 25.9936 115.5 57.75 115.5ZM84.9209 45.6399C87.0261 43.5347 87.0261 40.1215 84.9209 38.0164C82.8157 35.9112 79.4031 35.9112 77.2978 38.0164L48.7656 66.5484L38.2024 55.9851C36.0972 53.88 32.684 53.88 30.5789 55.9851C28.4737 58.0903 28.4737 61.5035 30.5789 63.6086L44.9539 77.9834C47.059 80.0886 50.4722 80.0886 52.5774 77.9834L84.9209 45.6399Z" fill="#89D08B"/>
</g>
<defs>
<clipPath id="clip0_12370_15973">
<rect width="115" height="115" fill="white" transform="translate(0.25 0.5)"/>
</clipPath>
</defs>
</svg>
