<svg width="32" height="32" viewBox="0 0 32 32" fill="none" xmlns="http://www.w3.org/2000/svg">
<g clip-path="url(#clip0_12309_13045)">
<path fill-rule="evenodd" clip-rule="evenodd" d="M4.68434 27.3137C-1.56405 21.0653 -1.56405 10.9347 4.68434 4.68629C10.9327 -1.5621 21.0634 -1.5621 27.3118 4.68629C33.5601 10.9347 33.5601 21.0653 27.3118 27.3137C21.0634 33.5621 10.9327 33.5621 4.68434 27.3137ZM12.0602 9.93934C11.4744 9.35355 10.5247 9.35355 9.93888 9.93934C9.35309 10.5251 9.35309 11.4749 9.93888 12.0607L13.8782 16L9.93888 19.9393C9.35309 20.5251 9.35309 21.4749 9.93888 22.0607C10.5247 22.6465 11.4744 22.6465 12.0602 22.0607L15.9995 18.1213L19.9389 22.0607C20.5247 22.6464 21.4744 22.6464 22.0602 22.0607C22.646 21.4749 22.646 20.5251 22.0602 19.9393L18.1209 16L22.0602 12.0607C22.646 11.4749 22.646 10.5251 22.0602 9.93935C21.4744 9.35357 20.5247 9.35357 19.9389 9.93935L15.9995 13.8787L12.0602 9.93934Z" fill="#8B0000"/>
</g>
<defs>
<clipPath id="clip0_12309_13045">
<rect width="32" height="32" fill="white"/>
</clipPath>
</defs>
</svg>
