<svg width="280" height="104" viewBox="0 0 280 104" fill="none" xmlns="http://www.w3.org/2000/svg">
<g clip-path="url(#clip0_10653_484)">
<path fill-rule="evenodd" clip-rule="evenodd" d="M1.9285 9.0625H5.34499C5.52526 6.46984 6.42695 4.36722 7.3211 2.87698C7.46886 2.6307 7.61671 2.40062 7.7615 2.18727C4.65316 3.07621 2.30677 5.77001 1.9285 9.0625ZM5.345 10.9375H1.9285C2.30677 14.23 4.65322 16.9239 7.76161 17.8127C7.6168 17.5994 7.4689 17.3693 7.3211 17.1229C6.42696 15.6326 5.52529 13.5301 5.345 10.9375ZM7.22533 10.9375H12.7746C12.599 13.1069 11.8387 14.8789 11.0711 16.1583C10.6883 16.7963 10.3062 17.3071 10 17.6777C9.69376 17.3071 9.31171 16.7963 8.9289 16.1583C8.16132 14.8789 7.40099 13.1069 7.22533 10.9375ZM12.7747 9.0625H7.22531C7.40096 6.89307 8.16131 5.12096 8.9289 3.84165C9.31171 3.20364 9.69376 2.69269 10 2.32212C10.3062 2.69269 10.6883 3.20364 11.0711 3.84165C11.8387 5.12096 12.599 6.89307 12.7747 9.0625ZM14.655 10.9375C14.4747 13.5301 13.573 15.6326 12.6789 17.1229C12.5311 17.3693 12.3832 17.5994 12.2384 17.8127C15.3468 16.9239 17.6933 14.23 18.0715 10.9375H14.655ZM18.0715 9.0625H14.655C14.4747 6.46984 13.573 4.36722 12.6789 2.87698C12.5311 2.6307 12.3833 2.40062 12.2385 2.18726C15.3469 3.0762 17.6933 5.77001 18.0715 9.0625ZM10 0C4.47715 0 0 4.47715 0 10C0 15.5229 4.47715 20 10 20C15.5229 20 20 15.5229 20 10C20 4.47715 15.5229 0 10 0Z" fill="#FC9300"/>
</g>
<path d="M30.3646 16.216C29.2246 16.216 28.3306 15.898 27.6826 15.262C27.0346 14.626 26.7106 13.744 26.7106 12.616H28.2406C28.2406 13.252 28.3966 13.786 28.7086 14.218C29.0206 14.65 29.5666 14.866 30.3466 14.866C31.1026 14.866 31.6246 14.656 31.9126 14.236C32.2126 13.816 32.3626 13.294 32.3626 12.67V3.4H33.8746V12.67C33.8746 13.786 33.5626 14.656 32.9386 15.28C32.3266 15.904 31.4686 16.216 30.3646 16.216ZM40.463 16.216C39.611 16.216 38.855 16.024 38.195 15.64C37.535 15.244 37.013 14.698 36.629 14.002C36.257 13.306 36.071 12.484 36.071 11.536C36.071 10.6 36.257 9.784 36.629 9.088C37.001 8.38 37.517 7.834 38.177 7.45C38.849 7.054 39.623 6.856 40.499 6.856C41.363 6.856 42.107 7.054 42.731 7.45C43.367 7.834 43.853 8.344 44.189 8.98C44.525 9.616 44.693 10.3 44.693 11.032C44.693 11.164 44.687 11.296 44.675 11.428C44.675 11.56 44.675 11.71 44.675 11.878H37.565C37.601 12.562 37.757 13.132 38.033 13.588C38.321 14.032 38.675 14.368 39.095 14.596C39.527 14.824 39.983 14.938 40.463 14.938C41.087 14.938 41.609 14.794 42.029 14.506C42.449 14.218 42.755 13.828 42.947 13.336H44.441C44.201 14.164 43.739 14.854 43.055 15.406C42.383 15.946 41.519 16.216 40.463 16.216ZM40.463 8.134C39.743 8.134 39.101 8.356 38.537 8.8C37.985 9.232 37.667 9.868 37.583 10.708H43.199C43.163 9.904 42.887 9.274 42.371 8.818C41.855 8.362 41.219 8.134 40.463 8.134ZM46.6971 16V7.072H48.0651L48.1551 8.674C48.4431 8.11 48.8571 7.666 49.3971 7.342C49.9371 7.018 50.5491 6.856 51.2331 6.856C52.2891 6.856 53.1291 7.18 53.7531 7.828C54.3891 8.464 54.7071 9.448 54.7071 10.78V16H53.1951V10.942C53.1951 9.082 52.4271 8.152 50.8911 8.152C50.1231 8.152 49.4811 8.434 48.9651 8.998C48.4611 9.55 48.2091 10.342 48.2091 11.374V16H46.6971ZM56.9979 16V7.072H58.3659L58.4559 8.674C58.7439 8.11 59.1579 7.666 59.6979 7.342C60.2379 7.018 60.8499 6.856 61.5339 6.856C62.5899 6.856 63.4299 7.18 64.0539 7.828C64.6899 8.464 65.0079 9.448 65.0079 10.78V16H63.4959V10.942C63.4959 9.082 62.7279 8.152 61.1919 8.152C60.4239 8.152 59.7819 8.434 59.2659 8.998C58.7619 9.55 58.5099 10.342 58.5099 11.374V16H56.9979ZM68.2166 5.092C67.9166 5.092 67.6646 4.996 67.4606 4.804C67.2686 4.6 67.1726 4.348 67.1726 4.048C67.1726 3.76 67.2686 3.52 67.4606 3.328C67.6646 3.136 67.9166 3.04 68.2166 3.04C68.5046 3.04 68.7506 3.136 68.9546 3.328C69.1586 3.52 69.2606 3.76 69.2606 4.048C69.2606 4.348 69.1586 4.6 68.9546 4.804C68.7506 4.996 68.5046 5.092 68.2166 5.092ZM67.4606 16V7.072H68.9726V16H67.4606ZM72.0913 16V8.35H70.7413V7.072H72.0913V5.524C72.0913 4.66 72.3073 4.03 72.7393 3.634C73.1713 3.238 73.8013 3.04 74.6293 3.04H75.5293V4.336H74.8633C74.4073 4.336 74.0833 4.432 73.8913 4.624C73.6993 4.804 73.6033 5.116 73.6033 5.56V7.072H75.7993V8.35H73.6033V16H72.0913ZM81.2619 16.216C80.4099 16.216 79.6539 16.024 78.9939 15.64C78.3339 15.244 77.8119 14.698 77.4279 14.002C77.0559 13.306 76.8699 12.484 76.8699 11.536C76.8699 10.6 77.0559 9.784 77.4279 9.088C77.7999 8.38 78.3159 7.834 78.9759 7.45C79.6479 7.054 80.4219 6.856 81.2979 6.856C82.1619 6.856 82.9059 7.054 83.5299 7.45C84.1659 7.834 84.6519 8.344 84.9879 8.98C85.3239 9.616 85.4919 10.3 85.4919 11.032C85.4919 11.164 85.4859 11.296 85.4739 11.428C85.4739 11.56 85.4739 11.71 85.4739 11.878H78.3639C78.3999 12.562 78.5559 13.132 78.8319 13.588C79.1199 14.032 79.4739 14.368 79.8939 14.596C80.3259 14.824 80.7819 14.938 81.2619 14.938C81.8859 14.938 82.4079 14.794 82.8279 14.506C83.2479 14.218 83.5539 13.828 83.7459 13.336H85.2399C84.9999 14.164 84.5379 14.854 83.8539 15.406C83.1819 15.946 82.3179 16.216 81.2619 16.216ZM81.2619 8.134C80.5419 8.134 79.8999 8.356 79.3359 8.8C78.7839 9.232 78.4659 9.868 78.3819 10.708H83.9979C83.9619 9.904 83.6859 9.274 83.1699 8.818C82.6539 8.362 82.0179 8.134 81.2619 8.134ZM87.4959 16V7.072H88.8639L88.9899 8.782C89.2659 8.194 89.6859 7.726 90.2499 7.378C90.8139 7.03 91.5099 6.856 92.3379 6.856V8.44H91.9239C91.3959 8.44 90.9099 8.536 90.4659 8.728C90.0219 8.908 89.6679 9.22 89.4039 9.664C89.1399 10.108 89.0079 10.72 89.0079 11.5V16H87.4959ZM93.333 16L97.977 3.4H99.579L104.205 16H102.603L101.451 12.76H96.087L94.917 16H93.333ZM96.537 11.536H101.001L98.769 5.308L96.537 11.536ZM105.988 16V7.072H107.356L107.446 8.674C107.734 8.11 108.148 7.666 108.688 7.342C109.228 7.018 109.84 6.856 110.524 6.856C111.58 6.856 112.42 7.18 113.044 7.828C113.68 8.464 113.998 9.448 113.998 10.78V16H112.486V10.942C112.486 9.082 111.718 8.152 110.182 8.152C109.414 8.152 108.772 8.434 108.256 8.998C107.752 9.55 107.5 10.342 107.5 11.374V16H105.988ZM116.289 16V7.072H117.657L117.747 8.674C118.035 8.11 118.449 7.666 118.989 7.342C119.529 7.018 120.141 6.856 120.825 6.856C121.881 6.856 122.721 7.18 123.345 7.828C123.981 8.464 124.299 9.448 124.299 10.78V16H122.787V10.942C122.787 9.082 122.019 8.152 120.483 8.152C119.715 8.152 119.073 8.434 118.557 8.998C118.053 9.55 117.801 10.342 117.801 11.374V16H116.289ZM127.112 16.09C126.812 16.09 126.56 15.994 126.356 15.802C126.164 15.598 126.068 15.352 126.068 15.064C126.068 14.776 126.164 14.536 126.356 14.344C126.56 14.14 126.812 14.038 127.112 14.038C127.4 14.038 127.64 14.14 127.832 14.344C128.036 14.536 128.138 14.776 128.138 15.064C128.138 15.352 128.036 15.598 127.832 15.802C127.64 15.994 127.4 16.09 127.112 16.09ZM134.173 16.216C133.333 16.216 132.577 16.024 131.905 15.64C131.233 15.256 130.699 14.716 130.303 14.02C129.919 13.312 129.727 12.484 129.727 11.536C129.727 10.588 129.925 9.766 130.321 9.07C130.717 8.362 131.251 7.816 131.923 7.432C132.607 7.048 133.369 6.856 134.209 6.856C135.049 6.856 135.805 7.048 136.477 7.432C137.149 7.816 137.677 8.362 138.061 9.07C138.457 9.766 138.655 10.588 138.655 11.536C138.655 12.484 138.457 13.312 138.061 14.02C137.665 14.716 137.125 15.256 136.441 15.64C135.769 16.024 135.013 16.216 134.173 16.216ZM134.173 14.92C134.689 14.92 135.169 14.794 135.613 14.542C136.057 14.29 136.417 13.912 136.693 13.408C136.969 12.904 137.107 12.28 137.107 11.536C137.107 10.792 136.969 10.168 136.693 9.664C136.429 9.16 136.075 8.782 135.631 8.53C135.187 8.278 134.713 8.152 134.209 8.152C133.693 8.152 133.213 8.278 132.769 8.53C132.325 8.782 131.965 9.16 131.689 9.664C131.413 10.168 131.275 10.792 131.275 11.536C131.275 12.28 131.413 12.904 131.689 13.408C131.965 13.912 132.319 14.29 132.751 14.542C133.195 14.794 133.669 14.92 134.173 14.92ZM140.758 16V7.072H142.126L142.252 8.782C142.528 8.194 142.948 7.726 143.512 7.378C144.076 7.03 144.772 6.856 145.6 6.856V8.44H145.186C144.658 8.44 144.172 8.536 143.728 8.728C143.284 8.908 142.93 9.22 142.666 9.664C142.402 10.108 142.27 10.72 142.27 11.5V16H140.758ZM150.614 13.192C150.11 13.192 149.648 13.126 149.228 12.994L148.328 13.84C148.46 13.936 148.622 14.02 148.814 14.092C149.018 14.152 149.306 14.212 149.678 14.272C150.05 14.32 150.572 14.374 151.244 14.434C152.444 14.518 153.302 14.794 153.818 15.262C154.334 15.73 154.592 16.342 154.592 17.098C154.592 17.614 154.448 18.106 154.16 18.574C153.884 19.042 153.452 19.426 152.864 19.726C152.288 20.026 151.544 20.176 150.632 20.176C149.828 20.176 149.114 20.068 148.49 19.852C147.866 19.648 147.38 19.33 147.032 18.898C146.684 18.478 146.51 17.944 146.51 17.296C146.51 16.96 146.6 16.594 146.78 16.198C146.96 15.814 147.296 15.448 147.788 15.1C147.524 14.992 147.296 14.878 147.104 14.758C146.924 14.626 146.756 14.482 146.6 14.326V13.912L148.13 12.4C147.422 11.8 147.068 11.008 147.068 10.024C147.068 9.436 147.206 8.902 147.482 8.422C147.758 7.942 148.16 7.564 148.688 7.288C149.216 7 149.858 6.856 150.614 6.856C151.13 6.856 151.598 6.928 152.018 7.072H155.312V8.206L153.638 8.278C153.986 8.782 154.16 9.364 154.16 10.024C154.16 10.612 154.016 11.146 153.728 11.626C153.452 12.106 153.05 12.49 152.522 12.778C152.006 13.054 151.37 13.192 150.614 13.192ZM150.614 11.95C151.25 11.95 151.754 11.788 152.126 11.464C152.51 11.128 152.702 10.648 152.702 10.024C152.702 9.412 152.51 8.944 152.126 8.62C151.754 8.284 151.25 8.116 150.614 8.116C149.966 8.116 149.45 8.284 149.066 8.62C148.694 8.944 148.508 9.412 148.508 10.024C148.508 10.648 148.694 11.128 149.066 11.464C149.45 11.788 149.966 11.95 150.614 11.95ZM147.986 17.152C147.986 17.752 148.238 18.196 148.742 18.484C149.246 18.784 149.876 18.934 150.632 18.934C151.376 18.934 151.97 18.772 152.414 18.448C152.87 18.124 153.098 17.692 153.098 17.152C153.098 16.768 152.942 16.432 152.63 16.144C152.318 15.868 151.742 15.706 150.902 15.658C150.242 15.61 149.672 15.55 149.192 15.478C148.7 15.742 148.376 16.024 148.22 16.324C148.064 16.636 147.986 16.912 147.986 17.152Z" fill="#6F6C90"/>
<a href="http://jenniferann.org/">
<rect fill="black" fill-opacity="0" x="0.224609" y="-1.718" width="129.555" height="23.436"/>
</a>
<path d="M18.3333 47.9497V56.283C18.3333 56.8356 18.1138 57.3655 17.7231 57.7562C17.3324 58.1469 16.8025 58.3664 16.25 58.3664H3.75001C3.19747 58.3664 2.66757 58.1469 2.27687 57.7562C1.88616 57.3655 1.66667 56.8356 1.66667 56.283V47.9497" stroke="#FC9300" stroke-width="1.4" stroke-linecap="round" stroke-linejoin="round"/>
<path d="M18.3333 47.9495C18.3333 47.397 18.1138 46.8671 17.7231 46.4764C17.3324 46.0857 16.8025 45.8662 16.25 45.8662H3.75001C3.19747 45.8662 2.66757 46.0857 2.27687 46.4764C1.88616 46.8671 1.66667 47.397 1.66667 47.9495L8.89584 52.4634C9.22695 52.6704 9.60955 52.7801 10 52.7801C10.3905 52.7801 10.7731 52.6704 11.1042 52.4634L18.3333 47.9495Z" stroke="#FC9300" stroke-width="1.4" stroke-linecap="round" stroke-linejoin="round"/>
<path d="M31.5071 58.216C30.6551 58.216 29.8871 58.024 29.2031 57.64C28.5311 57.244 27.9971 56.698 27.6011 56.002C27.2171 55.294 27.0251 54.472 27.0251 53.536C27.0251 52.6 27.2171 51.784 27.6011 51.088C27.9971 50.38 28.5311 49.834 29.2031 49.45C29.8871 49.054 30.6551 48.856 31.5071 48.856C32.5631 48.856 33.4511 49.132 34.1711 49.684C34.9031 50.236 35.3651 50.974 35.5571 51.898H34.0091C33.8891 51.346 33.5951 50.92 33.1271 50.62C32.6591 50.308 32.1131 50.152 31.4891 50.152C30.9851 50.152 30.5111 50.278 30.0671 50.53C29.6231 50.782 29.2631 51.16 28.9871 51.664C28.7111 52.168 28.5731 52.792 28.5731 53.536C28.5731 54.28 28.7111 54.904 28.9871 55.408C29.2631 55.912 29.6231 56.296 30.0671 56.56C30.5111 56.812 30.9851 56.938 31.4891 56.938C32.1131 56.938 32.6591 56.788 33.1271 56.488C33.5951 56.176 33.8891 55.738 34.0091 55.174H35.5571C35.3771 56.074 34.9211 56.806 34.1891 57.37C33.4571 57.934 32.5631 58.216 31.5071 58.216ZM41.7368 58.216C40.8968 58.216 40.1408 58.024 39.4688 57.64C38.7968 57.256 38.2628 56.716 37.8668 56.02C37.4828 55.312 37.2908 54.484 37.2908 53.536C37.2908 52.588 37.4888 51.766 37.8848 51.07C38.2808 50.362 38.8148 49.816 39.4868 49.432C40.1708 49.048 40.9328 48.856 41.7728 48.856C42.6128 48.856 43.3688 49.048 44.0408 49.432C44.7128 49.816 45.2408 50.362 45.6248 51.07C46.0208 51.766 46.2188 52.588 46.2188 53.536C46.2188 54.484 46.0208 55.312 45.6248 56.02C45.2288 56.716 44.6888 57.256 44.0048 57.64C43.3328 58.024 42.5768 58.216 41.7368 58.216ZM41.7368 56.92C42.2528 56.92 42.7328 56.794 43.1768 56.542C43.6208 56.29 43.9808 55.912 44.2568 55.408C44.5328 54.904 44.6708 54.28 44.6708 53.536C44.6708 52.792 44.5328 52.168 44.2568 51.664C43.9928 51.16 43.6388 50.782 43.1948 50.53C42.7508 50.278 42.2768 50.152 41.7728 50.152C41.2568 50.152 40.7768 50.278 40.3328 50.53C39.8888 50.782 39.5288 51.16 39.2528 51.664C38.9768 52.168 38.8388 52.792 38.8388 53.536C38.8388 54.28 38.9768 54.904 39.2528 55.408C39.5288 55.912 39.8828 56.29 40.3148 56.542C40.7588 56.794 41.2328 56.92 41.7368 56.92ZM48.3211 58V49.072H49.6891L49.7791 50.674C50.0671 50.11 50.4811 49.666 51.0211 49.342C51.5611 49.018 52.1731 48.856 52.8571 48.856C53.9131 48.856 54.7531 49.18 55.3771 49.828C56.0131 50.464 56.3311 51.448 56.3311 52.78V58H54.8191V52.942C54.8191 51.082 54.0511 50.152 52.5151 50.152C51.7471 50.152 51.1051 50.434 50.5891 50.998C50.0851 51.55 49.8331 52.342 49.8331 53.374V58H48.3211ZM62.1499 58C61.3339 58 60.6919 57.802 60.2239 57.406C59.7559 57.01 59.5219 56.296 59.5219 55.264V50.35H57.9739V49.072H59.5219L59.7199 46.93H61.0339V49.072H63.6619V50.35H61.0339V55.264C61.0339 55.828 61.1479 56.212 61.3759 56.416C61.6039 56.608 62.0059 56.704 62.5819 56.704H63.5179V58H62.1499ZM68.5528 58.216C67.8088 58.216 67.1908 58.09 66.6988 57.838C66.2068 57.586 65.8408 57.25 65.6008 56.83C65.3608 56.41 65.2408 55.954 65.2408 55.462C65.2408 54.55 65.5888 53.848 66.2848 53.356C66.9808 52.864 67.9288 52.618 69.1288 52.618H71.5408V52.51C71.5408 51.73 71.3368 51.142 70.9288 50.746C70.5208 50.338 69.9748 50.134 69.2908 50.134C68.7028 50.134 68.1928 50.284 67.7608 50.584C67.3408 50.872 67.0768 51.298 66.9688 51.862H65.4208C65.4808 51.214 65.6968 50.668 66.0688 50.224C66.4528 49.78 66.9268 49.444 67.4908 49.216C68.0548 48.976 68.6548 48.856 69.2908 48.856C70.5388 48.856 71.4748 49.192 72.0988 49.864C72.7348 50.524 73.0528 51.406 73.0528 52.51V58H71.7028L71.6128 56.398C71.3608 56.902 70.9888 57.334 70.4968 57.694C70.0168 58.042 69.3688 58.216 68.5528 58.216ZM68.7868 56.938C69.3628 56.938 69.8548 56.788 70.2628 56.488C70.6828 56.188 71.0008 55.798 71.2168 55.318C71.4328 54.838 71.5408 54.334 71.5408 53.806V53.788H69.2548C68.3668 53.788 67.7368 53.944 67.3648 54.256C67.0048 54.556 66.8248 54.934 66.8248 55.39C66.8248 55.858 66.9928 56.236 67.3288 56.524C67.6768 56.8 68.1628 56.938 68.7868 56.938ZM79.4251 58.216C78.5731 58.216 77.8051 58.024 77.1211 57.64C76.4491 57.244 75.9151 56.698 75.5191 56.002C75.1351 55.294 74.9431 54.472 74.9431 53.536C74.9431 52.6 75.1351 51.784 75.5191 51.088C75.9151 50.38 76.4491 49.834 77.1211 49.45C77.8051 49.054 78.5731 48.856 79.4251 48.856C80.4811 48.856 81.3691 49.132 82.0891 49.684C82.8211 50.236 83.2831 50.974 83.4751 51.898H81.9271C81.8071 51.346 81.5131 50.92 81.0451 50.62C80.5771 50.308 80.0311 50.152 79.4071 50.152C78.9031 50.152 78.4291 50.278 77.9851 50.53C77.5411 50.782 77.1811 51.16 76.9051 51.664C76.6291 52.168 76.4911 52.792 76.4911 53.536C76.4911 54.28 76.6291 54.904 76.9051 55.408C77.1811 55.912 77.5411 56.296 77.9851 56.56C78.4291 56.812 78.9031 56.938 79.4071 56.938C80.0311 56.938 80.5771 56.788 81.0451 56.488C81.5131 56.176 81.8071 55.738 81.9271 55.174H83.4751C83.2951 56.074 82.8391 56.806 82.1071 57.37C81.3751 57.934 80.4811 58.216 79.4251 58.216ZM88.8686 58C88.0526 58 87.4106 57.802 86.9426 57.406C86.4746 57.01 86.2406 56.296 86.2406 55.264V50.35H84.6926V49.072H86.2406L86.4386 46.93H87.7526V49.072H90.3806V50.35H87.7526V55.264C87.7526 55.828 87.8666 56.212 88.0946 56.416C88.3226 56.608 88.7246 56.704 89.3006 56.704H90.2366V58H88.8686ZM98.8356 61.582C97.5516 61.582 96.4236 61.336 95.4516 60.844C94.4916 60.352 93.7416 59.656 93.2016 58.756C92.6736 57.856 92.4096 56.788 92.4096 55.552C92.4096 54.28 92.6316 53.092 93.0756 51.988C93.5196 50.884 94.1436 49.918 94.9476 49.09C95.7516 48.262 96.6996 47.62 97.7916 47.164C98.8836 46.708 100.084 46.48 101.392 46.48C102.724 46.48 103.882 46.738 104.866 47.254C105.85 47.758 106.606 48.466 107.134 49.378C107.674 50.278 107.944 51.328 107.944 52.528C107.944 53.212 107.86 53.89 107.692 54.562C107.524 55.222 107.272 55.822 106.936 56.362C106.612 56.89 106.21 57.316 105.73 57.64C105.262 57.952 104.722 58.108 104.11 58.108C103.498 58.108 103.03 57.952 102.706 57.64C102.394 57.328 102.22 56.908 102.184 56.38C101.812 56.92 101.338 57.346 100.762 57.658C100.198 57.958 99.5976 58.108 98.9616 58.108C98.0496 58.108 97.3356 57.832 96.8196 57.28C96.3156 56.728 96.0636 55.984 96.0636 55.048C96.0636 54.388 96.1656 53.758 96.3696 53.158C96.5856 52.546 96.8856 52.006 97.2696 51.538C97.6536 51.058 98.1096 50.68 98.6376 50.404C99.1656 50.128 99.7536 49.99 100.402 49.99C101.614 49.99 102.4 50.488 102.76 51.484L102.994 50.188H104.272L103.372 55.336C103.288 55.852 103.312 56.272 103.444 56.596C103.588 56.908 103.882 57.064 104.326 57.064C104.71 57.064 105.052 56.932 105.352 56.668C105.652 56.392 105.904 56.032 106.108 55.588C106.312 55.132 106.462 54.646 106.558 54.13C106.666 53.602 106.72 53.092 106.72 52.6C106.72 51.028 106.228 49.792 105.244 48.892C104.272 47.992 102.928 47.542 101.212 47.542C100.12 47.542 99.1116 47.746 98.1876 48.154C97.2756 48.562 96.4776 49.126 95.7936 49.846C95.1096 50.566 94.5756 51.4 94.1916 52.348C93.8196 53.296 93.6336 54.322 93.6336 55.426C93.6336 56.506 93.8556 57.424 94.2996 58.18C94.7436 58.936 95.3736 59.512 96.1896 59.908C97.0056 60.304 97.9776 60.502 99.1056 60.502C99.6216 60.502 100.138 60.448 100.654 60.34C101.17 60.244 101.65 60.094 102.094 59.89L102.346 60.916C101.266 61.36 100.096 61.582 98.8356 61.582ZM99.4116 56.956C99.9276 56.956 100.402 56.818 100.834 56.542C101.266 56.266 101.62 55.888 101.896 55.408C102.172 54.916 102.34 54.352 102.4 53.716C102.484 53.008 102.358 52.402 102.022 51.898C101.698 51.394 101.17 51.142 100.438 51.142C99.8256 51.142 99.2916 51.322 98.8356 51.682C98.3916 52.03 98.0496 52.486 97.8096 53.05C97.5696 53.614 97.4496 54.202 97.4496 54.814C97.4496 55.462 97.6116 55.984 97.9356 56.38C98.2716 56.764 98.7636 56.956 99.4116 56.956ZM113.428 58.216C112.288 58.216 111.394 57.898 110.746 57.262C110.098 56.626 109.774 55.744 109.774 54.616H111.304C111.304 55.252 111.46 55.786 111.772 56.218C112.084 56.65 112.63 56.866 113.41 56.866C114.166 56.866 114.688 56.656 114.976 56.236C115.276 55.816 115.426 55.294 115.426 54.67V45.4H116.938V54.67C116.938 55.786 116.626 56.656 116.002 57.28C115.39 57.904 114.532 58.216 113.428 58.216ZM123.527 58.216C122.675 58.216 121.919 58.024 121.259 57.64C120.599 57.244 120.077 56.698 119.693 56.002C119.321 55.306 119.135 54.484 119.135 53.536C119.135 52.6 119.321 51.784 119.693 51.088C120.065 50.38 120.581 49.834 121.241 49.45C121.913 49.054 122.687 48.856 123.563 48.856C124.427 48.856 125.171 49.054 125.795 49.45C126.431 49.834 126.917 50.344 127.253 50.98C127.589 51.616 127.757 52.3 127.757 53.032C127.757 53.164 127.751 53.296 127.739 53.428C127.739 53.56 127.739 53.71 127.739 53.878H120.629C120.665 54.562 120.821 55.132 121.097 55.588C121.385 56.032 121.739 56.368 122.159 56.596C122.591 56.824 123.047 56.938 123.527 56.938C124.151 56.938 124.673 56.794 125.093 56.506C125.513 56.218 125.819 55.828 126.011 55.336H127.505C127.265 56.164 126.803 56.854 126.119 57.406C125.447 57.946 124.583 58.216 123.527 58.216ZM123.527 50.134C122.807 50.134 122.165 50.356 121.601 50.8C121.049 51.232 120.731 51.868 120.647 52.708H126.263C126.227 51.904 125.951 51.274 125.435 50.818C124.919 50.362 124.283 50.134 123.527 50.134ZM129.761 58V49.072H131.129L131.219 50.674C131.507 50.11 131.921 49.666 132.461 49.342C133.001 49.018 133.613 48.856 134.297 48.856C135.353 48.856 136.193 49.18 136.817 49.828C137.453 50.464 137.771 51.448 137.771 52.78V58H136.259V52.942C136.259 51.082 135.491 50.152 133.955 50.152C133.187 50.152 132.545 50.434 132.029 50.998C131.525 51.55 131.273 52.342 131.273 53.374V58H129.761ZM140.061 58V49.072H141.429L141.519 50.674C141.807 50.11 142.221 49.666 142.761 49.342C143.301 49.018 143.913 48.856 144.597 48.856C145.653 48.856 146.493 49.18 147.117 49.828C147.753 50.464 148.071 51.448 148.071 52.78V58H146.559V52.942C146.559 51.082 145.791 50.152 144.255 50.152C143.487 50.152 142.845 50.434 142.329 50.998C141.825 51.55 141.573 52.342 141.573 53.374V58H140.061ZM151.28 47.092C150.98 47.092 150.728 46.996 150.524 46.804C150.332 46.6 150.236 46.348 150.236 46.048C150.236 45.76 150.332 45.52 150.524 45.328C150.728 45.136 150.98 45.04 151.28 45.04C151.568 45.04 151.814 45.136 152.018 45.328C152.222 45.52 152.324 45.76 152.324 46.048C152.324 46.348 152.222 46.6 152.018 46.804C151.814 46.996 151.568 47.092 151.28 47.092ZM150.524 58V49.072H152.036V58H150.524ZM155.155 58V50.35H153.805V49.072H155.155V47.524C155.155 46.66 155.371 46.03 155.803 45.634C156.235 45.238 156.865 45.04 157.693 45.04H158.593V46.336H157.927C157.471 46.336 157.147 46.432 156.955 46.624C156.763 46.804 156.667 47.116 156.667 47.56V49.072H158.863V50.35H156.667V58H155.155ZM164.325 58.216C163.473 58.216 162.717 58.024 162.057 57.64C161.397 57.244 160.875 56.698 160.491 56.002C160.119 55.306 159.933 54.484 159.933 53.536C159.933 52.6 160.119 51.784 160.491 51.088C160.863 50.38 161.379 49.834 162.039 49.45C162.711 49.054 163.485 48.856 164.361 48.856C165.225 48.856 165.969 49.054 166.593 49.45C167.229 49.834 167.715 50.344 168.051 50.98C168.387 51.616 168.555 52.3 168.555 53.032C168.555 53.164 168.549 53.296 168.537 53.428C168.537 53.56 168.537 53.71 168.537 53.878H161.427C161.463 54.562 161.619 55.132 161.895 55.588C162.183 56.032 162.537 56.368 162.957 56.596C163.389 56.824 163.845 56.938 164.325 56.938C164.949 56.938 165.471 56.794 165.891 56.506C166.311 56.218 166.617 55.828 166.809 55.336H168.303C168.063 56.164 167.601 56.854 166.917 57.406C166.245 57.946 165.381 58.216 164.325 58.216ZM164.325 50.134C163.605 50.134 162.963 50.356 162.399 50.8C161.847 51.232 161.529 51.868 161.445 52.708H167.061C167.025 51.904 166.749 51.274 166.233 50.818C165.717 50.362 165.081 50.134 164.325 50.134ZM170.559 58V49.072H171.927L172.053 50.782C172.329 50.194 172.749 49.726 173.313 49.378C173.877 49.03 174.573 48.856 175.401 48.856V50.44H174.987C174.459 50.44 173.973 50.536 173.529 50.728C173.085 50.908 172.731 51.22 172.467 51.664C172.203 52.108 172.071 52.72 172.071 53.5V58H170.559ZM176.396 58L181.04 45.4H182.642L187.268 58H185.666L184.514 54.76H179.15L177.98 58H176.396ZM179.6 53.536H184.064L181.832 47.308L179.6 53.536ZM189.052 58V49.072H190.42L190.51 50.674C190.798 50.11 191.212 49.666 191.752 49.342C192.292 49.018 192.904 48.856 193.588 48.856C194.644 48.856 195.484 49.18 196.108 49.828C196.744 50.464 197.062 51.448 197.062 52.78V58H195.55V52.942C195.55 51.082 194.782 50.152 193.246 50.152C192.478 50.152 191.836 50.434 191.32 50.998C190.816 51.55 190.564 52.342 190.564 53.374V58H189.052ZM199.352 58V49.072H200.72L200.81 50.674C201.098 50.11 201.512 49.666 202.052 49.342C202.592 49.018 203.204 48.856 203.888 48.856C204.944 48.856 205.784 49.18 206.408 49.828C207.044 50.464 207.362 51.448 207.362 52.78V58H205.85V52.942C205.85 51.082 205.082 50.152 203.546 50.152C202.778 50.152 202.136 50.434 201.62 50.998C201.116 51.55 200.864 52.342 200.864 53.374V58H199.352ZM210.175 58.09C209.875 58.09 209.623 57.994 209.419 57.802C209.227 57.598 209.131 57.352 209.131 57.064C209.131 56.776 209.227 56.536 209.419 56.344C209.623 56.14 209.875 56.038 210.175 56.038C210.463 56.038 210.703 56.14 210.895 56.344C211.099 56.536 211.201 56.776 211.201 57.064C211.201 57.352 211.099 57.598 210.895 57.802C210.703 57.994 210.463 58.09 210.175 58.09ZM217.237 58.216C216.397 58.216 215.641 58.024 214.969 57.64C214.297 57.256 213.763 56.716 213.367 56.02C212.983 55.312 212.791 54.484 212.791 53.536C212.791 52.588 212.989 51.766 213.385 51.07C213.781 50.362 214.315 49.816 214.987 49.432C215.671 49.048 216.433 48.856 217.273 48.856C218.113 48.856 218.869 49.048 219.541 49.432C220.213 49.816 220.741 50.362 221.125 51.07C221.521 51.766 221.719 52.588 221.719 53.536C221.719 54.484 221.521 55.312 221.125 56.02C220.729 56.716 220.189 57.256 219.505 57.64C218.833 58.024 218.077 58.216 217.237 58.216ZM217.237 56.92C217.753 56.92 218.233 56.794 218.677 56.542C219.121 56.29 219.481 55.912 219.757 55.408C220.033 54.904 220.171 54.28 220.171 53.536C220.171 52.792 220.033 52.168 219.757 51.664C219.493 51.16 219.139 50.782 218.695 50.53C218.251 50.278 217.777 50.152 217.273 50.152C216.757 50.152 216.277 50.278 215.833 50.53C215.389 50.782 215.029 51.16 214.753 51.664C214.477 52.168 214.339 52.792 214.339 53.536C214.339 54.28 214.477 54.904 214.753 55.408C215.029 55.912 215.383 56.29 215.815 56.542C216.259 56.794 216.733 56.92 217.237 56.92ZM223.821 58V49.072H225.189L225.315 50.782C225.591 50.194 226.011 49.726 226.575 49.378C227.139 49.03 227.835 48.856 228.663 48.856V50.44H228.249C227.721 50.44 227.235 50.536 226.791 50.728C226.347 50.908 225.993 51.22 225.729 51.664C225.465 52.108 225.333 52.72 225.333 53.5V58H223.821ZM233.677 55.192C233.173 55.192 232.711 55.126 232.291 54.994L231.391 55.84C231.523 55.936 231.685 56.02 231.877 56.092C232.081 56.152 232.369 56.212 232.741 56.272C233.113 56.32 233.635 56.374 234.307 56.434C235.507 56.518 236.365 56.794 236.881 57.262C237.397 57.73 237.655 58.342 237.655 59.098C237.655 59.614 237.511 60.106 237.223 60.574C236.947 61.042 236.515 61.426 235.927 61.726C235.351 62.026 234.607 62.176 233.695 62.176C232.891 62.176 232.177 62.068 231.553 61.852C230.929 61.648 230.443 61.33 230.095 60.898C229.747 60.478 229.573 59.944 229.573 59.296C229.573 58.96 229.663 58.594 229.843 58.198C230.023 57.814 230.359 57.448 230.851 57.1C230.587 56.992 230.359 56.878 230.167 56.758C229.987 56.626 229.819 56.482 229.663 56.326V55.912L231.193 54.4C230.485 53.8 230.131 53.008 230.131 52.024C230.131 51.436 230.269 50.902 230.545 50.422C230.821 49.942 231.223 49.564 231.751 49.288C232.279 49 232.921 48.856 233.677 48.856C234.193 48.856 234.661 48.928 235.081 49.072H238.375V50.206L236.701 50.278C237.049 50.782 237.223 51.364 237.223 52.024C237.223 52.612 237.079 53.146 236.791 53.626C236.515 54.106 236.113 54.49 235.585 54.778C235.069 55.054 234.433 55.192 233.677 55.192ZM233.677 53.95C234.313 53.95 234.817 53.788 235.189 53.464C235.573 53.128 235.765 52.648 235.765 52.024C235.765 51.412 235.573 50.944 235.189 50.62C234.817 50.284 234.313 50.116 233.677 50.116C233.029 50.116 232.513 50.284 232.129 50.62C231.757 50.944 231.571 51.412 231.571 52.024C231.571 52.648 231.757 53.128 232.129 53.464C232.513 53.788 233.029 53.95 233.677 53.95ZM231.049 59.152C231.049 59.752 231.301 60.196 231.805 60.484C232.309 60.784 232.939 60.934 233.695 60.934C234.439 60.934 235.033 60.772 235.477 60.448C235.933 60.124 236.161 59.692 236.161 59.152C236.161 58.768 236.005 58.432 235.693 58.144C235.381 57.868 234.805 57.706 233.965 57.658C233.305 57.61 232.735 57.55 232.255 57.478C231.763 57.742 231.439 58.024 231.283 58.324C231.127 58.636 231.049 58.912 231.049 59.152Z" fill="#6F6C90"/>
<path d="M12.2516 101.385L12.2607 101.391C13.0477 101.893 13.9822 102.11 14.9097 102.008C15.8371 101.907 16.7021 101.491 17.3616 100.831L17.9346 100.258C18.0615 100.131 18.1623 99.9808 18.231 99.815C18.2997 99.6492 18.3351 99.4714 18.3351 99.2919C18.3351 99.1124 18.2997 98.9347 18.231 98.7688C18.1623 98.603 18.0615 98.4524 17.9346 98.3255L15.518 95.9107C15.3911 95.7838 15.2405 95.683 15.0746 95.6143C14.9088 95.5456 14.7311 95.5102 14.5516 95.5102C14.3721 95.5102 14.1943 95.5456 14.0285 95.6143C13.8627 95.683 13.712 95.7838 13.5851 95.9107C13.3289 96.1669 12.9814 96.3108 12.6191 96.3108C12.2568 96.3108 11.9094 96.1669 11.6531 95.9107L7.78918 92.0459C7.53304 91.7896 7.38914 91.4422 7.38914 91.0799C7.38914 90.7176 7.53304 90.3701 7.78918 90.1139C7.91615 89.987 8.01687 89.8363 8.08559 89.6705C8.15431 89.5047 8.18968 89.3269 8.18968 89.1474C8.18968 88.9679 8.15431 88.7902 8.08559 88.6244C8.01687 88.4585 7.91615 88.3079 7.78918 88.181L5.37353 85.7663C5.1173 85.5101 4.76984 85.3662 4.40754 85.3662C4.04524 85.3662 3.69777 85.5101 3.44155 85.7663L2.8677 86.3392C2.20785 86.9988 1.79279 87.8639 1.6911 88.7913C1.58941 89.7188 1.80717 90.6532 2.30842 91.4401L2.31388 91.4492C4.96106 95.3658 8.33451 98.7386 12.2516 101.385V101.385Z" stroke="#FC9300" stroke-width="1.4" stroke-linecap="round" stroke-linejoin="round"/>
<path d="M31.6023 100.216C30.7743 100.216 30.0303 100.066 29.3703 99.766C28.7103 99.454 28.1883 99.028 27.8043 98.488C27.4323 97.936 27.2463 97.3 27.2463 96.58C27.2463 95.812 27.4683 95.122 27.9123 94.51C28.3683 93.898 28.9683 93.49 29.7123 93.286C29.0283 93.058 28.5003 92.692 28.1283 92.188C27.7563 91.684 27.5703 91.132 27.5703 90.532C27.5703 89.92 27.7323 89.362 28.0563 88.858C28.3803 88.342 28.8423 87.934 29.4423 87.634C30.0423 87.334 30.7623 87.184 31.6023 87.184C32.4423 87.184 33.1623 87.334 33.7623 87.634C34.3623 87.934 34.8243 88.342 35.1483 88.858C35.4723 89.362 35.6343 89.92 35.6343 90.532C35.6343 91.12 35.4483 91.672 35.0763 92.188C34.7043 92.692 34.1763 93.058 33.4923 93.286C34.2363 93.49 34.8303 93.898 35.2743 94.51C35.7303 95.122 35.9583 95.812 35.9583 96.58C35.9583 97.3 35.7663 97.936 35.3823 98.488C35.0103 99.028 34.4943 99.454 33.8343 99.766C33.1743 100.066 32.4303 100.216 31.6023 100.216ZM31.6023 92.746C32.3703 92.746 32.9763 92.554 33.4203 92.17C33.8763 91.774 34.1043 91.258 34.1043 90.622C34.1043 89.914 33.8823 89.38 33.4383 89.02C32.9943 88.66 32.3823 88.48 31.6023 88.48C30.8223 88.48 30.2103 88.66 29.7663 89.02C29.3343 89.38 29.1183 89.914 29.1183 90.622C29.1183 91.258 29.3403 91.774 29.7843 92.17C30.2283 92.554 30.8343 92.746 31.6023 92.746ZM31.6023 98.884C32.5503 98.884 33.2583 98.668 33.7263 98.236C34.2063 97.792 34.4463 97.21 34.4463 96.49C34.4463 95.674 34.1883 95.056 33.6723 94.636C33.1563 94.216 32.4663 94.006 31.6023 94.006C30.7383 94.006 30.0483 94.216 29.5323 94.636C29.0163 95.056 28.7583 95.674 28.7583 96.49C28.7583 97.21 28.9923 97.792 29.4603 98.236C29.9403 98.668 30.6543 98.884 31.6023 98.884ZM39 100L44.004 88.696H37.092V87.4H45.552V88.534L40.602 100H39ZM48.5977 100L53.6017 88.696H46.6897V87.4H55.1497V88.534L50.1997 100H48.5977ZM56.2661 95.41V94.132H63.3941V95.41H56.2661ZM65.7539 100L70.7579 88.696H63.8459V87.4H72.3059V88.534L67.3559 100H65.7539ZM78.1668 100.216C77.3388 100.216 76.5948 100.066 75.9348 99.766C75.2748 99.454 74.7528 99.028 74.3688 98.488C73.9968 97.936 73.8108 97.3 73.8108 96.58C73.8108 95.812 74.0328 95.122 74.4768 94.51C74.9328 93.898 75.5328 93.49 76.2768 93.286C75.5928 93.058 75.0648 92.692 74.6928 92.188C74.3208 91.684 74.1348 91.132 74.1348 90.532C74.1348 89.92 74.2968 89.362 74.6208 88.858C74.9448 88.342 75.4068 87.934 76.0068 87.634C76.6068 87.334 77.3268 87.184 78.1668 87.184C79.0068 87.184 79.7268 87.334 80.3268 87.634C80.9268 87.934 81.3888 88.342 81.7128 88.858C82.0368 89.362 82.1988 89.92 82.1988 90.532C82.1988 91.12 82.0128 91.672 81.6408 92.188C81.2688 92.692 80.7408 93.058 80.0568 93.286C80.8008 93.49 81.3948 93.898 81.8388 94.51C82.2948 95.122 82.5228 95.812 82.5228 96.58C82.5228 97.3 82.3308 97.936 81.9468 98.488C81.5748 99.028 81.0588 99.454 80.3988 99.766C79.7388 100.066 78.9948 100.216 78.1668 100.216ZM78.1668 92.746C78.9348 92.746 79.5408 92.554 79.9848 92.17C80.4408 91.774 80.6688 91.258 80.6688 90.622C80.6688 89.914 80.4468 89.38 80.0028 89.02C79.5588 88.66 78.9468 88.48 78.1668 88.48C77.3868 88.48 76.7748 88.66 76.3308 89.02C75.8988 89.38 75.6828 89.914 75.6828 90.622C75.6828 91.258 75.9048 91.774 76.3488 92.17C76.7928 92.554 77.3988 92.746 78.1668 92.746ZM78.1668 98.884C79.1148 98.884 79.8228 98.668 80.2908 98.236C80.7708 97.792 81.0108 97.21 81.0108 96.49C81.0108 95.674 80.7528 95.056 80.2368 94.636C79.7208 94.216 79.0308 94.006 78.1668 94.006C77.3028 94.006 76.6128 94.216 76.0968 94.636C75.5808 95.056 75.3228 95.674 75.3228 96.49C75.3228 97.21 75.5568 97.792 76.0248 98.236C76.5048 98.668 77.2188 98.884 78.1668 98.884ZM89.5311 100.216C88.6191 100.216 87.8511 100.048 87.2271 99.712C86.6031 99.364 86.0991 98.902 85.7151 98.326C85.3431 97.75 85.0671 97.108 84.8871 96.4C84.7191 95.68 84.6351 94.948 84.6351 94.204C84.6351 92.812 84.8271 91.594 85.2111 90.55C85.5951 89.494 86.1471 88.672 86.8671 88.084C87.5991 87.484 88.4811 87.184 89.5131 87.184C90.3051 87.184 90.9831 87.34 91.5471 87.652C92.1111 87.964 92.5551 88.384 92.8791 88.912C93.2151 89.428 93.4251 90.004 93.5091 90.64H92.1051C91.9731 89.956 91.6791 89.428 91.2231 89.056C90.7671 88.684 90.1911 88.498 89.4951 88.498C88.5471 88.498 87.7491 88.948 87.1011 89.848C86.4651 90.736 86.1231 92.128 86.0751 94.024C86.3631 93.46 86.8191 92.974 87.4431 92.566C88.0791 92.146 88.8411 91.936 89.7291 91.936C90.4491 91.936 91.1211 92.104 91.7451 92.44C92.3811 92.776 92.8971 93.25 93.2931 93.862C93.6891 94.462 93.8871 95.17 93.8871 95.986C93.8871 96.694 93.7131 97.372 93.3651 98.02C93.0171 98.668 92.5131 99.196 91.8531 99.604C91.2051 100.012 90.4311 100.216 89.5311 100.216ZM89.4231 98.884C89.9871 98.884 90.4911 98.764 90.9351 98.524C91.3791 98.284 91.7271 97.954 91.9791 97.534C92.2311 97.102 92.3571 96.61 92.3571 96.058C92.3571 95.206 92.0751 94.528 91.5111 94.024C90.9591 93.508 90.2631 93.25 89.4231 93.25C88.8591 93.25 88.3551 93.382 87.9111 93.646C87.4671 93.898 87.1131 94.24 86.8491 94.672C86.5971 95.104 86.4711 95.572 86.4711 96.076C86.4711 96.616 86.5971 97.102 86.8491 97.534C87.1131 97.954 87.4671 98.284 87.9111 98.524C88.3551 98.764 88.8591 98.884 89.4231 98.884ZM96.063 95.41V94.132H103.191V95.41H96.063ZM105.551 100L110.555 88.696H103.643V87.4H112.103V88.534L107.153 100H105.551ZM117.964 100.216C117.136 100.216 116.392 100.066 115.732 99.766C115.072 99.454 114.55 99.028 114.166 98.488C113.794 97.936 113.608 97.3 113.608 96.58C113.608 95.812 113.83 95.122 114.274 94.51C114.73 93.898 115.33 93.49 116.074 93.286C115.39 93.058 114.862 92.692 114.49 92.188C114.118 91.684 113.932 91.132 113.932 90.532C113.932 89.92 114.094 89.362 114.418 88.858C114.742 88.342 115.204 87.934 115.804 87.634C116.404 87.334 117.124 87.184 117.964 87.184C118.804 87.184 119.524 87.334 120.124 87.634C120.724 87.934 121.186 88.342 121.51 88.858C121.834 89.362 121.996 89.92 121.996 90.532C121.996 91.12 121.81 91.672 121.438 92.188C121.066 92.692 120.538 93.058 119.854 93.286C120.598 93.49 121.192 93.898 121.636 94.51C122.092 95.122 122.32 95.812 122.32 96.58C122.32 97.3 122.128 97.936 121.744 98.488C121.372 99.028 120.856 99.454 120.196 99.766C119.536 100.066 118.792 100.216 117.964 100.216ZM117.964 92.746C118.732 92.746 119.338 92.554 119.782 92.17C120.238 91.774 120.466 91.258 120.466 90.622C120.466 89.914 120.244 89.38 119.8 89.02C119.356 88.66 118.744 88.48 117.964 88.48C117.184 88.48 116.572 88.66 116.128 89.02C115.696 89.38 115.48 89.914 115.48 90.622C115.48 91.258 115.702 91.774 116.146 92.17C116.59 92.554 117.196 92.746 117.964 92.746ZM117.964 98.884C118.912 98.884 119.62 98.668 120.088 98.236C120.568 97.792 120.808 97.21 120.808 96.49C120.808 95.674 120.55 95.056 120.034 94.636C119.518 94.216 118.828 94.006 117.964 94.006C117.1 94.006 116.41 94.216 115.894 94.636C115.378 95.056 115.12 95.674 115.12 96.49C115.12 97.21 115.354 97.792 115.822 98.236C116.302 98.668 117.016 98.884 117.964 98.884ZM128.716 100.216C127.912 100.216 127.186 100.072 126.538 99.784C125.89 99.484 125.368 99.04 124.972 98.452C124.588 97.864 124.384 97.132 124.36 96.256H125.89C125.902 96.976 126.154 97.6 126.646 98.128C127.138 98.644 127.828 98.902 128.716 98.902C129.604 98.902 130.27 98.656 130.714 98.164C131.17 97.672 131.398 97.078 131.398 96.382C131.398 95.794 131.254 95.314 130.966 94.942C130.69 94.57 130.312 94.294 129.832 94.114C129.364 93.934 128.848 93.844 128.284 93.844H127.348V92.566H128.284C129.1 92.566 129.736 92.38 130.192 92.008C130.66 91.636 130.894 91.114 130.894 90.442C130.894 89.878 130.708 89.416 130.336 89.056C129.976 88.684 129.436 88.498 128.716 88.498C128.02 88.498 127.462 88.708 127.042 89.128C126.622 89.536 126.388 90.052 126.34 90.676H124.81C124.846 89.992 125.026 89.386 125.35 88.858C125.686 88.33 126.142 87.922 126.718 87.634C127.294 87.334 127.96 87.184 128.716 87.184C129.532 87.184 130.21 87.328 130.75 87.616C131.302 87.904 131.716 88.288 131.992 88.768C132.28 89.248 132.424 89.776 132.424 90.352C132.424 90.988 132.25 91.57 131.902 92.098C131.554 92.614 131.032 92.962 130.336 93.142C131.08 93.298 131.698 93.652 132.19 94.204C132.682 94.756 132.928 95.482 132.928 96.382C132.928 97.078 132.766 97.72 132.442 98.308C132.13 98.884 131.662 99.346 131.038 99.694C130.414 100.042 129.64 100.216 128.716 100.216ZM139.532 100.216C138.704 100.216 137.96 100.066 137.3 99.766C136.64 99.454 136.118 99.028 135.734 98.488C135.362 97.936 135.176 97.3 135.176 96.58C135.176 95.812 135.398 95.122 135.842 94.51C136.298 93.898 136.898 93.49 137.642 93.286C136.958 93.058 136.43 92.692 136.058 92.188C135.686 91.684 135.5 91.132 135.5 90.532C135.5 89.92 135.662 89.362 135.986 88.858C136.31 88.342 136.772 87.934 137.372 87.634C137.972 87.334 138.692 87.184 139.532 87.184C140.372 87.184 141.092 87.334 141.692 87.634C142.292 87.934 142.754 88.342 143.078 88.858C143.402 89.362 143.564 89.92 143.564 90.532C143.564 91.12 143.378 91.672 143.006 92.188C142.634 92.692 142.106 93.058 141.422 93.286C142.166 93.49 142.76 93.898 143.204 94.51C143.66 95.122 143.888 95.812 143.888 96.58C143.888 97.3 143.696 97.936 143.312 98.488C142.94 99.028 142.424 99.454 141.764 99.766C141.104 100.066 140.36 100.216 139.532 100.216ZM139.532 92.746C140.3 92.746 140.906 92.554 141.35 92.17C141.806 91.774 142.034 91.258 142.034 90.622C142.034 89.914 141.812 89.38 141.368 89.02C140.924 88.66 140.312 88.48 139.532 88.48C138.752 88.48 138.14 88.66 137.696 89.02C137.264 89.38 137.048 89.914 137.048 90.622C137.048 91.258 137.27 91.774 137.714 92.17C138.158 92.554 138.764 92.746 139.532 92.746ZM139.532 98.884C140.48 98.884 141.188 98.668 141.656 98.236C142.136 97.792 142.376 97.21 142.376 96.49C142.376 95.674 142.118 95.056 141.602 94.636C141.086 94.216 140.396 94.006 139.532 94.006C138.668 94.006 137.978 94.216 137.462 94.636C136.946 95.056 136.688 95.674 136.688 96.49C136.688 97.21 136.922 97.792 137.39 98.236C137.87 98.668 138.584 98.884 139.532 98.884ZM154.256 102.61C153.608 101.986 153.008 101.242 152.456 100.378C151.904 99.526 151.46 98.566 151.124 97.498C150.8 96.418 150.638 95.254 150.638 94.006C150.638 92.758 150.8 91.6 151.124 90.532C151.46 89.452 151.904 88.486 152.456 87.634C153.008 86.77 153.608 86.026 154.256 85.402H155.804V85.546C154.7 86.626 153.812 87.892 153.14 89.344C152.48 90.784 152.15 92.338 152.15 94.006C152.15 95.674 152.486 97.234 153.158 98.686C153.83 100.126 154.712 101.386 155.804 102.466V102.61H154.256ZM161.241 100.216C160.413 100.216 159.669 100.066 159.009 99.766C158.349 99.454 157.827 99.028 157.443 98.488C157.071 97.936 156.885 97.3 156.885 96.58C156.885 95.812 157.107 95.122 157.551 94.51C158.007 93.898 158.607 93.49 159.351 93.286C158.667 93.058 158.139 92.692 157.767 92.188C157.395 91.684 157.209 91.132 157.209 90.532C157.209 89.92 157.371 89.362 157.695 88.858C158.019 88.342 158.481 87.934 159.081 87.634C159.681 87.334 160.401 87.184 161.241 87.184C162.081 87.184 162.801 87.334 163.401 87.634C164.001 87.934 164.463 88.342 164.787 88.858C165.111 89.362 165.273 89.92 165.273 90.532C165.273 91.12 165.087 91.672 164.715 92.188C164.343 92.692 163.815 93.058 163.131 93.286C163.875 93.49 164.469 93.898 164.913 94.51C165.369 95.122 165.597 95.812 165.597 96.58C165.597 97.3 165.405 97.936 165.021 98.488C164.649 99.028 164.133 99.454 163.473 99.766C162.813 100.066 162.069 100.216 161.241 100.216ZM161.241 92.746C162.009 92.746 162.615 92.554 163.059 92.17C163.515 91.774 163.743 91.258 163.743 90.622C163.743 89.914 163.521 89.38 163.077 89.02C162.633 88.66 162.021 88.48 161.241 88.48C160.461 88.48 159.849 88.66 159.405 89.02C158.973 89.38 158.757 89.914 158.757 90.622C158.757 91.258 158.979 91.774 159.423 92.17C159.867 92.554 160.473 92.746 161.241 92.746ZM161.241 98.884C162.189 98.884 162.897 98.668 163.365 98.236C163.845 97.792 164.085 97.21 164.085 96.49C164.085 95.674 163.827 95.056 163.311 94.636C162.795 94.216 162.105 94.006 161.241 94.006C160.377 94.006 159.687 94.216 159.171 94.636C158.655 95.056 158.397 95.674 158.397 96.49C158.397 97.21 158.631 97.792 159.099 98.236C159.579 98.668 160.293 98.884 161.241 98.884ZM168.639 100L173.643 88.696H166.731V87.4H175.191V88.534L170.241 100H168.639ZM178.236 100L183.24 88.696H176.328V87.4H184.788V88.534L179.838 100H178.236ZM195.568 100.216C194.644 100.216 193.84 100.048 193.156 99.712C192.472 99.376 191.944 98.908 191.572 98.308C191.2 97.708 191.014 97.012 191.014 96.22H192.598C192.598 96.712 192.712 97.168 192.94 97.588C193.168 97.996 193.498 98.326 193.93 98.578C194.374 98.818 194.92 98.938 195.568 98.938C196.42 98.938 197.08 98.734 197.548 98.326C198.016 97.918 198.25 97.408 198.25 96.796C198.25 96.292 198.142 95.89 197.926 95.59C197.71 95.278 197.416 95.026 197.044 94.834C196.684 94.642 196.264 94.474 195.784 94.33C195.316 94.186 194.824 94.024 194.308 93.844C193.336 93.508 192.616 93.094 192.148 92.602C191.68 92.098 191.446 91.444 191.446 90.64C191.434 89.968 191.59 89.374 191.914 88.858C192.238 88.33 192.694 87.922 193.282 87.634C193.882 87.334 194.59 87.184 195.406 87.184C196.21 87.184 196.906 87.334 197.494 87.634C198.094 87.934 198.556 88.348 198.88 88.876C199.216 89.404 199.39 90.004 199.402 90.676H197.818C197.818 90.328 197.728 89.986 197.548 89.65C197.368 89.302 197.092 89.02 196.72 88.804C196.36 88.588 195.904 88.48 195.352 88.48C194.668 88.468 194.104 88.642 193.66 89.002C193.228 89.362 193.012 89.86 193.012 90.496C193.012 91.036 193.162 91.45 193.462 91.738C193.774 92.026 194.206 92.266 194.758 92.458C195.31 92.638 195.946 92.848 196.666 93.088C197.266 93.304 197.806 93.556 198.286 93.844C198.766 94.132 199.138 94.504 199.402 94.96C199.678 95.416 199.816 95.998 199.816 96.706C199.816 97.306 199.66 97.876 199.348 98.416C199.036 98.944 198.562 99.376 197.926 99.712C197.302 100.048 196.516 100.216 195.568 100.216ZM204.613 100V88.642H200.851V87.4H209.887V88.642H206.125V100H204.613ZM216.807 100.216C215.571 100.216 214.485 99.946 213.549 99.406C212.625 98.854 211.899 98.086 211.371 97.102C210.855 96.118 210.597 94.984 210.597 93.7C210.597 92.416 210.855 91.288 211.371 90.316C211.899 89.332 212.625 88.564 213.549 88.012C214.485 87.46 215.571 87.184 216.807 87.184C218.055 87.184 219.141 87.46 220.065 88.012C221.001 88.564 221.727 89.332 222.243 90.316C222.759 91.288 223.017 92.416 223.017 93.7C223.017 94.984 222.759 96.118 222.243 97.102C221.727 98.086 221.001 98.854 220.065 99.406C219.141 99.946 218.055 100.216 216.807 100.216ZM216.807 98.884C217.731 98.884 218.541 98.68 219.237 98.272C219.945 97.852 220.491 97.258 220.875 96.49C221.271 95.71 221.469 94.78 221.469 93.7C221.469 92.62 221.271 91.696 220.875 90.928C220.491 90.16 219.945 89.572 219.237 89.164C218.541 88.744 217.731 88.534 216.807 88.534C215.883 88.534 215.067 88.744 214.359 89.164C213.663 89.572 213.117 90.16 212.721 90.928C212.337 91.696 212.145 92.62 212.145 93.7C212.145 94.78 212.337 95.71 212.721 96.49C213.117 97.258 213.663 97.852 214.359 98.272C215.067 98.68 215.883 98.884 216.807 98.884ZM225.198 100V87.4H229.338C230.322 87.4 231.132 87.562 231.768 87.886C232.404 88.21 232.872 88.648 233.172 89.2C233.484 89.752 233.64 90.376 233.64 91.072C233.64 91.756 233.49 92.374 233.19 92.926C232.89 93.478 232.422 93.922 231.786 94.258C231.15 94.582 230.334 94.744 229.338 94.744H226.71V100H225.198ZM226.71 93.466H229.302C230.31 93.466 231.024 93.256 231.444 92.836C231.876 92.404 232.092 91.816 232.092 91.072C232.092 90.316 231.876 89.728 231.444 89.308C231.024 88.876 230.31 88.66 229.302 88.66H226.71V93.466ZM243.338 100V88.642H239.576V87.4H248.612V88.642H244.85V100H243.338ZM250.458 100V87.4H254.328C256.548 87.4 258.18 87.964 259.224 89.092C260.28 90.22 260.808 91.768 260.808 93.736C260.808 95.668 260.28 97.198 259.224 98.326C258.18 99.442 256.548 100 254.328 100H250.458ZM251.97 98.74H254.292C255.516 98.74 256.488 98.542 257.208 98.146C257.94 97.738 258.462 97.162 258.774 96.418C259.086 95.662 259.242 94.768 259.242 93.736C259.242 92.68 259.086 91.774 258.774 91.018C258.462 90.262 257.94 89.68 257.208 89.272C256.488 88.864 255.516 88.66 254.292 88.66H251.97V98.74ZM266.297 100L261.563 87.4H263.201L267.179 98.398L271.193 87.4H272.795L268.061 100H266.297ZM273.874 102.61V102.466C274.966 101.386 275.848 100.126 276.52 98.686C277.204 97.234 277.546 95.674 277.546 94.006C277.546 92.338 277.21 90.784 276.538 89.344C275.866 87.892 274.984 86.626 273.892 85.546V85.402H275.422C276.082 86.026 276.682 86.77 277.222 87.634C277.774 88.486 278.212 89.452 278.536 90.532C278.872 91.6 279.04 92.758 279.04 94.006C279.04 95.254 278.872 96.418 278.536 97.498C278.212 98.566 277.774 99.526 277.222 100.378C276.682 101.242 276.082 101.986 275.422 102.61H273.874Z" fill="#6F6C90"/>
<defs>
<clipPath id="clip0_10653_484">
<rect width="20" height="20" fill="white"/>
</clipPath>
</defs>
</svg>
