<svg width="24" height="24" viewBox="0 0 24 24" fill="none" xmlns="http://www.w3.org/2000/svg">
<path d="M13.1173 18.8386C13.293 19.0144 13.3917 19.2527 13.3917 19.5013C13.3917 19.7498 13.293 19.9882 13.1173 20.164L11.9525 21.3359C10.7206 22.5669 9.05019 23.2582 7.30863 23.2577C5.56707 23.2571 3.89706 22.5648 2.66598 21.3329C1.4349 20.1011 0.743592 18.4306 0.744141 16.6891C0.74469 14.9475 1.43705 13.2775 2.66891 12.0464L5.49547 9.21984C6.6787 8.03567 8.26973 7.34843 9.943 7.29876C11.6163 7.24909 13.2453 7.84075 14.4966 8.95265C14.589 9.03452 14.6643 9.13378 14.7183 9.24475C14.7722 9.35573 14.8038 9.47624 14.8112 9.59943C14.8186 9.72261 14.8017 9.84604 14.7614 9.96268C14.7211 10.0793 14.6582 10.1869 14.5763 10.2792C14.4945 10.3715 14.3952 10.4469 14.2842 10.5008C14.1733 10.5548 14.0527 10.5864 13.9296 10.5938C13.8064 10.6012 13.6829 10.5843 13.5663 10.544C13.4497 10.5037 13.3421 10.4408 13.2498 10.3589C12.356 9.5652 11.1928 9.14292 9.99798 9.17842C8.80319 9.21393 7.66709 9.70454 6.82203 10.5499L3.99547 13.373C3.11622 14.2522 2.62226 15.4447 2.62226 16.6882C2.62226 17.9317 3.11622 19.1242 3.99547 20.0034C4.87472 20.8827 6.06725 21.3766 7.3107 21.3766C8.55416 21.3766 9.74668 20.8827 10.6259 20.0034L11.7908 18.8386C11.8779 18.7514 11.9812 18.6823 12.0951 18.6351C12.2089 18.5879 12.3309 18.5636 12.4541 18.5636C12.5773 18.5636 12.6993 18.5879 12.8131 18.6351C12.9269 18.6823 13.0303 18.7514 13.1173 18.8386ZM21.3298 2.66671C20.0978 1.43744 18.4285 0.74707 16.688 0.74707C14.9476 0.74707 13.2783 1.43744 12.0463 2.66671L10.8814 3.83273C10.7056 4.00864 10.607 4.24717 10.6071 4.49584C10.6072 4.74451 10.7061 4.98295 10.882 5.15871C11.0579 5.33446 11.2964 5.43314 11.5451 5.43303C11.7938 5.43292 12.0322 5.33403 12.208 5.15812L13.3728 3.99328C14.2521 3.11402 15.4446 2.62006 16.688 2.62006C17.9315 2.62006 19.124 3.11402 20.0033 3.99328C20.8825 4.87253 21.3765 6.06506 21.3765 7.30851C21.3765 8.55196 20.8825 9.74449 20.0033 10.6237L17.1767 13.4527C16.3312 14.2975 15.1949 14.7875 14.0001 14.8224C12.8053 14.8572 11.6423 14.4343 10.749 13.6402C10.5625 13.4748 10.318 13.3903 10.0692 13.4053C9.82042 13.4202 9.58777 13.5334 9.42242 13.7198C9.25708 13.9063 9.17258 14.1508 9.18753 14.3996C9.20247 14.6484 9.31563 14.8811 9.50211 15.0464C10.7532 16.1586 12.382 16.7507 14.0553 16.7014C15.7286 16.6522 17.3197 15.9654 18.5033 14.7816L21.3298 11.955C22.5598 10.7229 23.2507 9.05301 23.2507 7.31203C23.2507 5.57104 22.5598 3.90119 21.3298 2.66906V2.66671Z" fill="black"/>
</svg>
