<svg width="30" height="30" viewBox="0 0 30 30" fill="none" xmlns="http://www.w3.org/2000/svg">
<path d="M5 25.3125V22.5C5 22.2514 5.09877 22.0129 5.27459 21.8371C5.4504 21.6613 5.68886 21.5625 5.9375 21.5625C6.18614 21.5625 6.4246 21.6613 6.60041 21.8371C6.77623 22.0129 6.875 22.2514 6.875 22.5V25.3125C6.875 25.485 7.015 25.625 7.1875 25.625H22.8125C22.8954 25.625 22.9749 25.5921 23.0335 25.5335C23.0921 25.4749 23.125 25.3954 23.125 25.3125V22.5C23.125 22.2514 23.2238 22.0129 23.3996 21.8371C23.5754 21.6613 23.8139 21.5625 24.0625 21.5625C24.3111 21.5625 24.5496 21.6613 24.7254 21.8371C24.9012 22.0129 25 22.2514 25 22.5V25.3125C25 25.8927 24.7695 26.4491 24.3593 26.8593C23.9491 27.2695 23.3927 27.5 22.8125 27.5H7.1875C6.60734 27.5 6.05094 27.2695 5.6407 26.8593C5.23047 26.4491 5 25.8927 5 25.3125Z" fill="black"/>
<path d="M6.52469 11.9122C6.43761 11.8252 6.36853 11.722 6.3214 11.6083C6.27426 11.4946 6.25 11.3728 6.25 11.2497C6.25 11.1266 6.27426 11.0048 6.3214 10.8911C6.36853 10.7774 6.43761 10.6741 6.52469 10.5872L14.3372 2.77469C14.4241 2.68761 14.5274 2.61853 14.6411 2.5714C14.7548 2.52426 14.8766 2.5 14.9997 2.5C15.1228 2.5 15.2446 2.52426 15.3583 2.5714C15.472 2.61853 15.5752 2.68761 15.6622 2.77469L23.4747 10.5872C23.5617 10.6742 23.6307 10.7775 23.6778 10.8912C23.7249 11.0048 23.7491 11.1267 23.7491 11.2497C23.7491 11.3727 23.7249 11.4946 23.6778 11.6082C23.6307 11.7219 23.5617 11.8252 23.4747 11.9122C23.3877 11.9992 23.2844 12.0682 23.1707 12.1153C23.0571 12.1624 22.9352 12.1866 22.8122 12.1866C22.6892 12.1866 22.5673 12.1624 22.4536 12.1153C22.34 12.0682 22.2367 11.9992 22.1497 11.9122L15.9372 5.70094V20.9372C15.9372 21.1858 15.8384 21.4243 15.6626 21.6001C15.4868 21.7759 15.2483 21.8747 14.9997 21.8747C14.7511 21.8747 14.5126 21.7759 14.3368 21.6001C14.161 21.4243 14.0622 21.1858 14.0622 20.9372V5.70094L7.84969 11.9122C7.76274 11.9993 7.65947 12.0684 7.54579 12.1155C7.43211 12.1626 7.31026 12.1869 7.18719 12.1869C7.06413 12.1869 6.94228 12.1626 6.8286 12.1155C6.71492 12.0684 6.61165 11.9993 6.52469 11.9122Z" fill="black"/>
</svg>
