<svg width="90" height="70" viewBox="0 0 90 70" fill="none" xmlns="http://www.w3.org/2000/svg">
<rect x="40" y="10" width="10" height="10" fill="#FC9300"/>
<rect x="70" y="30" width="10" height="10" fill="#FC9300"/>
<rect x="60" y="40" width="10" height="10" fill="#FC9300"/>
<rect x="50" y="50" width="10" height="10" fill="#FC9300"/>
<rect x="40" y="60" width="10" height="10" fill="#FC9300"/>
<rect x="40" y="50" width="10" height="10" fill="#FFE5C6"/>
<rect x="30" y="40" width="10" height="10" fill="#FFE5C6"/>
<rect x="40" y="40" width="10" height="10" fill="#FFE5C6"/>
<rect x="50" y="40" width="10" height="10" fill="#FFE5C6"/>
<rect x="60" y="30" width="10" height="10" fill="#FFE5C6"/>
<rect x="50" y="30" width="10" height="10" fill="#FFE5C6"/>
<rect x="40" y="30" width="10" height="10" fill="#FFE5C6"/>
<rect x="30" y="30" width="10" height="10" fill="#FFE5C6"/>
<rect x="20" y="30" width="10" height="10" fill="#FFE5C6"/>
<rect x="10" y="20" width="10" height="10" fill="#FFE5C6"/>
<rect x="20" y="20" width="10" height="10" fill="#FFE5C6"/>
<rect x="30" y="20" width="10" height="10" fill="#FFE5C6"/>
<rect x="40" y="20" width="10" height="10" fill="#FFE5C6"/>
<rect x="50" y="20" width="10" height="10" fill="#FFE5C6"/>
<rect x="60" y="20" width="10" height="10" fill="#FFE5C6"/>
<rect x="70" y="20" width="10" height="10" fill="#FFE5C6"/>
<rect x="50" y="10" width="10" height="10" fill="#FFE5C6"/>
<rect x="60" y="10" width="10" height="10" fill="#FFE5C6"/>
<rect x="70" y="10" width="10" height="10" fill="#FFE5C6"/>
<rect x="10" y="10" width="10" height="10" fill="#FFE5C6"/>
<rect x="20" y="10" width="10" height="10" fill="#FFE5C6"/>
<rect x="30" y="10" width="10" height="10" fill="#FFE5C6"/>
<rect x="30" y="50" width="10" height="10" fill="#FC9300"/>
<rect x="20" y="40" width="10" height="10" fill="#FC9300"/>
<rect x="10" y="30" width="10" height="10" fill="#FC9300"/>
<rect x="10" width="10" height="10" fill="#FC9300"/>
<rect x="20" width="10" height="10" fill="#FC9300"/>
<rect x="30" width="10" height="10" fill="#FC9300"/>
<rect y="20" width="10" height="10" fill="#FC9300"/>
<rect y="10" width="10" height="10" fill="#FC9300"/>
<rect x="80" y="20" width="10" height="10" fill="#FC9300"/>
<rect x="80" y="10" width="10" height="10" fill="#FC9300"/>
<rect x="50" width="10" height="10" fill="#FC9300"/>
<rect x="60" width="10" height="10" fill="#FC9300"/>
<rect x="70" width="10" height="10" fill="#FC9300"/>
</svg>
