<svg width="20" height="20" viewBox="0 0 20 20" fill="none" xmlns="http://www.w3.org/2000/svg">
<path fill-rule="evenodd" clip-rule="evenodd" d="M13.7658 1.78328C14.62 0.929008 16.005 0.929011 16.8593 1.78328L18.2165 3.14052C19.0708 3.99478 19.0708 5.37983 18.2165 6.23411L7.45448 16.9962C7.1916 17.2591 6.86608 17.4506 6.50863 17.5527L2.44508 18.7137C2.1177 18.8073 1.76537 18.7159 1.52462 18.4752C1.28387 18.2344 1.19256 17.8822 1.28609 17.5548L2.44712 13.4912C2.54924 13.1338 2.74078 12.8082 3.00365 12.5453L13.7658 1.78328ZM15.5335 3.10911C15.4114 2.98707 15.2135 2.98707 15.0915 3.10911L13.5133 4.68731L15.3125 6.48648L16.8908 4.90828C17.0128 4.78625 17.0128 4.58838 16.8908 4.46635L15.5335 3.10911ZM13.9867 7.81231L12.1875 6.01313L4.32948 13.8712C4.29193 13.9087 4.26457 13.9552 4.24997 14.0063L3.55254 16.4473L5.99353 15.7498C6.04459 15.7353 6.09109 15.7079 6.12865 15.6703L13.9867 7.81231Z" fill="#1A1A1A"/>
</svg>
